<?xml version="1.0" encoding="UTF-8" standalone="no"?>
<!DOCTYPE svg PUBLIC "-//W3C//DTD SVG 1.1//EN" "http://www.w3.org/Graphics/SVG/1.1/DTD/svg11.dtd">
<svg width="100%" height="100%" viewBox="0 0 32 32" version="1.1" xmlns="http://www.w3.org/2000/svg" xmlns:xlink="http://www.w3.org/1999/xlink" xml:space="preserve" xmlns:serif="http://www.serif.com/" style="fill-rule:evenodd;clip-rule:evenodd;stroke-linejoin:round;stroke-miterlimit:2;">
    <path d="M7,27.64L22,27.64L22,28.361L7,28.361C3.493,28.361 0.64,25.508 0.64,22.002C0.64,18.494 3.493,15.641 7,15.641L10,15.641L10,16.361L7,16.361C3.89,16.361 1.36,18.892 1.36,22.002C1.36,25.11 3.89,27.64 7,27.64ZM25,15.64L22,15.64L22,16.36L25,16.36C28.507,16.36 31.36,13.507 31.36,10C31.36,6.493 28.506,3.641 25,3.641L10,3.641L10,4.361L25,4.361C28.11,4.361 30.64,6.891 30.64,10.001C30.64,13.11 28.11,15.64 25,15.64ZM0.64,4C0.64,2.147 2.147,0.64 4,0.64C5.853,0.64 7.36,2.147 7.36,4C7.36,5.853 5.853,7.36 4,7.36C2.147,7.36 0.64,5.853 0.64,4ZM1.36,4C1.36,5.456 2.545,6.64 4,6.64C5.455,6.64 6.64,5.456 6.64,4C6.64,2.544 5.456,1.36 4,1.36C2.544,1.36 1.36,2.544 1.36,4ZM31.36,28C31.36,29.853 29.852,31.36 28,31.36C26.148,31.36 24.64,29.852 24.64,28C24.64,26.148 26.148,24.64 28,24.64C29.852,24.64 31.36,26.147 31.36,28ZM30.64,28C30.64,26.544 29.456,25.36 28,25.36C26.544,25.36 25.36,26.544 25.36,28C25.36,29.456 26.544,30.64 28,30.64C29.456,30.64 30.64,29.456 30.64,28ZM16.75,16C16.75,15.586 16.414,15.25 16,15.25C15.586,15.25 15.25,15.586 15.25,16C15.25,16.281 15.411,16.517 15.64,16.645L15.64,17.75C15.64,17.949 15.801,18.11 16,18.11C16.199,18.11 16.36,17.949 16.36,17.75L16.36,16.645C16.589,16.517 16.75,16.281 16.75,16ZM18.36,10.495L18.36,12.64L20,12.64C20.199,12.64 20.36,12.801 20.36,13L20.36,20C20.36,20.199 20.199,20.36 20,20.36L12,20.36C11.801,20.36 11.64,20.199 11.64,20L11.64,13C11.64,12.801 11.801,12.64 12,12.64L13.64,12.64L13.64,10.495C13.64,9.196 14.699,8.14 16,8.14C17.302,8.14 18.36,9.196 18.36,10.495ZM14.36,12.64L17.64,12.64L17.64,10.495C17.64,9.594 16.905,8.86 16,8.86C15.095,8.86 14.36,9.594 14.36,10.495L14.36,12.64ZM19.64,13.36L12.36,13.36L12.36,19.64L19.64,19.64L19.64,13.36Z" style="fill:white;fill-rule:nonzero;"/>
    <rect x="0" y="0" width="32" height="32" style="fill:none;fill-rule:nonzero;"/>
</svg>
