<svg enable-background="new 0 0 32 32" viewBox="0 0 32 32" xmlns="http://www.w3.org/2000/svg"><path d="m7 27.64h15v.721h-15c-3.507 0-6.36-2.853-6.36-6.359 0-3.508 2.853-6.361 6.36-6.361h3v.72h-3c-3.11 0-5.64 2.531-5.64 5.641 0 3.108 2.53 5.638 5.64 5.638zm18-12h-3v.72h3c3.507 0 6.36-2.853 6.36-6.36s-2.854-6.359-6.36-6.359h-15v.72h15c3.11 0 5.64 2.53 5.64 5.64 0 3.109-2.53 5.639-5.64 5.639zm-24.36-11.64c0-1.853 1.507-3.36 3.36-3.36s3.36 1.507 3.36 3.36-1.507 3.36-3.36 3.36-3.36-1.507-3.36-3.36zm.72 0c0 1.456 1.185 2.64 2.64 2.64s2.64-1.184 2.64-2.64-1.184-2.64-2.64-2.64-2.64 1.184-2.64 2.64zm30 24c0 1.853-1.508 3.36-3.36 3.36s-3.36-1.508-3.36-3.36 1.508-3.36 3.36-3.36 3.36 1.507 3.36 3.36zm-.72 0c0-1.456-1.184-2.64-2.64-2.64s-2.64 1.184-2.64 2.64 1.184 2.64 2.64 2.64 2.64-1.184 2.64-2.64zm-13.89-12c0-.414-.336-.75-.75-.75s-.75.336-.75.75c0 .281.161.517.39.645v1.105c0 .199.161.36.36.36s.36-.161.36-.36v-1.105c.229-.128.39-.364.39-.645zm1.61-5.505v2.145h1.64c.199 0 .36.161.36.36v7c0 .199-.161.36-.36.36h-8c-.199 0-.36-.161-.36-.36v-7c0-.199.161-.36.36-.36h1.64v-2.145c0-1.299 1.059-2.355 2.36-2.355 1.302 0 2.36 1.056 2.36 2.355zm-4 2.145h3.28v-2.145c0-.901-.735-1.635-1.64-1.635s-1.64.734-1.64 1.635zm5.28.72h-7.28v6.28h7.28z"/><path d="m0 0h32v32h-32z" fill="none"/></svg>